<mxfile host="65bd71144e">
    <diagram name="Page-1" id="movAqRWZ-xZXNUrRTlVl">
        <mxGraphModel dx="1824" dy="488" grid="1" gridSize="10" guides="1" tooltips="1" connect="1" arrows="1" fold="1" page="1" pageScale="1" pageWidth="827" pageHeight="1169" math="0" shadow="0">
            <root>
                <mxCell id="0"/>
                <mxCell id="1" parent="0"/>
                <mxCell id="_qi8FwCYdVETl0Iwc0qn-23" value="" style="edgeStyle=orthogonalEdgeStyle;rounded=0;orthogonalLoop=1;jettySize=auto;html=1;" parent="1" source="_qi8FwCYdVETl0Iwc0qn-1" target="_qi8FwCYdVETl0Iwc0qn-2" edge="1">
                    <mxGeometry relative="1" as="geometry"/>
                </mxCell>
                <mxCell id="_qi8FwCYdVETl0Iwc0qn-1" value="inicio" style="ellipse;whiteSpace=wrap;html=1;" parent="1" vertex="1">
                    <mxGeometry x="330" y="20" width="120" height="80" as="geometry"/>
                </mxCell>
                <mxCell id="_qi8FwCYdVETl0Iwc0qn-25" value="" style="edgeStyle=orthogonalEdgeStyle;rounded=0;orthogonalLoop=1;jettySize=auto;html=1;" parent="1" edge="1">
                    <mxGeometry relative="1" as="geometry">
                        <mxPoint x="320" y="320" as="sourcePoint"/>
                        <mxPoint x="110" y="350" as="targetPoint"/>
                    </mxGeometry>
                </mxCell>
                <mxCell id="_qi8FwCYdVETl0Iwc0qn-26" value="" style="edgeStyle=orthogonalEdgeStyle;rounded=0;orthogonalLoop=1;jettySize=auto;html=1;" parent="1" source="_qi8FwCYdVETl0Iwc0qn-2" target="_qi8FwCYdVETl0Iwc0qn-3" edge="1">
                    <mxGeometry relative="1" as="geometry"/>
                </mxCell>
                <mxCell id="_qi8FwCYdVETl0Iwc0qn-2" value="Se inician las&lt;div&gt;variables&lt;/div&gt;" style="shape=process;whiteSpace=wrap;html=1;backgroundOutline=1;" parent="1" vertex="1">
                    <mxGeometry x="330" y="140" width="120" height="60" as="geometry"/>
                </mxCell>
                <mxCell id="_qi8FwCYdVETl0Iwc0qn-51" value="" style="edgeStyle=orthogonalEdgeStyle;rounded=0;orthogonalLoop=1;jettySize=auto;html=1;" parent="1" source="_qi8FwCYdVETl0Iwc0qn-3" target="_qi8FwCYdVETl0Iwc0qn-7" edge="1">
                    <mxGeometry relative="1" as="geometry"/>
                </mxCell>
                <mxCell id="_qi8FwCYdVETl0Iwc0qn-53" value="" style="edgeStyle=orthogonalEdgeStyle;rounded=0;orthogonalLoop=1;jettySize=auto;html=1;" parent="1" source="_qi8FwCYdVETl0Iwc0qn-3" target="_qi8FwCYdVETl0Iwc0qn-52" edge="1">
                    <mxGeometry relative="1" as="geometry"/>
                </mxCell>
                <mxCell id="_qi8FwCYdVETl0Iwc0qn-3" value="Se verifican&amp;nbsp;&lt;div&gt;numeros&lt;/div&gt;" style="rhombus;whiteSpace=wrap;html=1;" parent="1" vertex="1">
                    <mxGeometry x="330" y="260" width="120" height="130" as="geometry"/>
                </mxCell>
                <mxCell id="_qi8FwCYdVETl0Iwc0qn-5" value="YES" style="text;html=1;align=center;verticalAlign=middle;whiteSpace=wrap;rounded=0;" parent="1" vertex="1">
                    <mxGeometry x="45" y="300" width="60" height="30" as="geometry"/>
                </mxCell>
                <mxCell id="_qi8FwCYdVETl0Iwc0qn-6" value="NO" style="text;html=1;align=center;verticalAlign=middle;whiteSpace=wrap;rounded=0;" parent="1" vertex="1">
                    <mxGeometry x="390" y="400" width="60" height="30" as="geometry"/>
                </mxCell>
                <mxCell id="_qi8FwCYdVETl0Iwc0qn-49" value="" style="edgeStyle=orthogonalEdgeStyle;rounded=0;orthogonalLoop=1;jettySize=auto;html=1;" parent="1" source="_qi8FwCYdVETl0Iwc0qn-7" target="_qi8FwCYdVETl0Iwc0qn-8" edge="1">
                    <mxGeometry relative="1" as="geometry"/>
                </mxCell>
                <mxCell id="_qi8FwCYdVETl0Iwc0qn-7" value="Crear diccionario" style="rounded=0;whiteSpace=wrap;html=1;" parent="1" vertex="1">
                    <mxGeometry x="330" y="450" width="120" height="60" as="geometry"/>
                </mxCell>
                <mxCell id="_qi8FwCYdVETl0Iwc0qn-8" value="Fin" style="ellipse;whiteSpace=wrap;html=1;" parent="1" vertex="1">
                    <mxGeometry x="330" y="560" width="120" height="80" as="geometry"/>
                </mxCell>
                <mxCell id="_qi8FwCYdVETl0Iwc0qn-28" value="" style="edgeStyle=orthogonalEdgeStyle;rounded=0;orthogonalLoop=1;jettySize=auto;html=1;" parent="1" source="_qi8FwCYdVETl0Iwc0qn-9" target="_qi8FwCYdVETl0Iwc0qn-10" edge="1">
                    <mxGeometry relative="1" as="geometry"/>
                </mxCell>
                <mxCell id="_qi8FwCYdVETl0Iwc0qn-9" value="pasa a siguiente numero" style="rounded=0;whiteSpace=wrap;html=1;" parent="1" vertex="1">
                    <mxGeometry x="40" y="360" width="150" height="60" as="geometry"/>
                </mxCell>
                <mxCell id="_qi8FwCYdVETl0Iwc0qn-32" value="" style="edgeStyle=orthogonalEdgeStyle;rounded=0;orthogonalLoop=1;jettySize=auto;html=1;" parent="1" source="_qi8FwCYdVETl0Iwc0qn-10" target="_qi8FwCYdVETl0Iwc0qn-31" edge="1">
                    <mxGeometry relative="1" as="geometry"/>
                </mxCell>
                <mxCell id="_qi8FwCYdVETl0Iwc0qn-10" value="numero &amp;gt; 0" style="rhombus;whiteSpace=wrap;html=1;" parent="1" vertex="1">
                    <mxGeometry x="57.5" y="460" width="115" height="110" as="geometry"/>
                </mxCell>
                <mxCell id="_qi8FwCYdVETl0Iwc0qn-11" value="YES" style="text;html=1;align=center;verticalAlign=middle;whiteSpace=wrap;rounded=0;" parent="1" vertex="1">
                    <mxGeometry x="-30" y="585" width="60" height="30" as="geometry"/>
                </mxCell>
                <mxCell id="_qi8FwCYdVETl0Iwc0qn-12" value="NO" style="text;html=1;align=center;verticalAlign=middle;whiteSpace=wrap;rounded=0;" parent="1" vertex="1">
                    <mxGeometry x="150" y="570" width="60" height="30" as="geometry"/>
                </mxCell>
                <mxCell id="_qi8FwCYdVETl0Iwc0qn-37" value="" style="edgeStyle=orthogonalEdgeStyle;rounded=0;orthogonalLoop=1;jettySize=auto;html=1;" parent="1" source="_qi8FwCYdVETl0Iwc0qn-13" target="_qi8FwCYdVETl0Iwc0qn-36" edge="1">
                    <mxGeometry relative="1" as="geometry"/>
                </mxCell>
                <mxCell id="_qi8FwCYdVETl0Iwc0qn-39" value="" style="edgeStyle=orthogonalEdgeStyle;rounded=0;orthogonalLoop=1;jettySize=auto;html=1;" parent="1" source="_qi8FwCYdVETl0Iwc0qn-13" target="_qi8FwCYdVETl0Iwc0qn-38" edge="1">
                    <mxGeometry relative="1" as="geometry"/>
                </mxCell>
                <mxCell id="_qi8FwCYdVETl0Iwc0qn-13" value="numero &amp;lt; 0" style="rhombus;whiteSpace=wrap;html=1;" parent="1" vertex="1">
                    <mxGeometry x="150" y="640" width="120" height="110" as="geometry"/>
                </mxCell>
                <mxCell id="_qi8FwCYdVETl0Iwc0qn-41" value="" style="edgeStyle=orthogonalEdgeStyle;rounded=0;orthogonalLoop=1;jettySize=auto;html=1;exitX=0.5;exitY=1;exitDx=0;exitDy=0;entryX=0.3;entryY=0.35;entryDx=0;entryDy=0;entryPerimeter=0;" parent="1" source="_qi8FwCYdVETl0Iwc0qn-14" target="_qi8FwCYdVETl0Iwc0qn-40" edge="1">
                    <mxGeometry relative="1" as="geometry">
                        <mxPoint x="-60" y="880" as="sourcePoint"/>
                        <mxPoint x="10" y="1040" as="targetPoint"/>
                        <Array as="points">
                            <mxPoint x="-10" y="960"/>
                        </Array>
                    </mxGeometry>
                </mxCell>
                <mxCell id="_qi8FwCYdVETl0Iwc0qn-14" value="Incrementar positivos" style="rounded=0;whiteSpace=wrap;html=1;" parent="1" vertex="1">
                    <mxGeometry x="-70" y="760" width="120" height="60" as="geometry"/>
                </mxCell>
                <mxCell id="_qi8FwCYdVETl0Iwc0qn-42" value="" style="edgeStyle=orthogonalEdgeStyle;rounded=0;orthogonalLoop=1;jettySize=auto;html=1;" parent="1" source="_qi8FwCYdVETl0Iwc0qn-15" target="_qi8FwCYdVETl0Iwc0qn-40" edge="1">
                    <mxGeometry relative="1" as="geometry"/>
                </mxCell>
                <mxCell id="_qi8FwCYdVETl0Iwc0qn-15" value="Incrementar negativos" style="rounded=0;whiteSpace=wrap;html=1;" parent="1" vertex="1">
                    <mxGeometry x="75" y="840" width="120" height="60" as="geometry"/>
                </mxCell>
                <mxCell id="_qi8FwCYdVETl0Iwc0qn-43" value="" style="edgeStyle=orthogonalEdgeStyle;rounded=0;orthogonalLoop=1;jettySize=auto;html=1;entryX=0.5;entryY=0;entryDx=0;entryDy=0;" parent="1" source="_qi8FwCYdVETl0Iwc0qn-16" target="_qi8FwCYdVETl0Iwc0qn-17" edge="1">
                    <mxGeometry relative="1" as="geometry">
                        <Array as="points">
                            <mxPoint x="310" y="960"/>
                        </Array>
                    </mxGeometry>
                </mxCell>
                <mxCell id="_qi8FwCYdVETl0Iwc0qn-16" value="Sin acciÃ³n&amp;nbsp;" style="rounded=0;whiteSpace=wrap;html=1;" parent="1" vertex="1">
                    <mxGeometry x="270" y="840" width="120" height="60" as="geometry"/>
                </mxCell>
                <mxCell id="_qi8FwCYdVETl0Iwc0qn-45" value="" style="edgeStyle=orthogonalEdgeStyle;rounded=0;orthogonalLoop=1;jettySize=auto;html=1;entryX=0;entryY=0.5;entryDx=0;entryDy=0;entryPerimeter=0;" parent="1" source="_qi8FwCYdVETl0Iwc0qn-17" target="_qi8FwCYdVETl0Iwc0qn-21" edge="1">
                    <mxGeometry relative="1" as="geometry">
                        <mxPoint x="540" y="1020" as="targetPoint"/>
                    </mxGeometry>
                </mxCell>
                <mxCell id="_qi8FwCYdVETl0Iwc0qn-17" value="numero % 2 == 0" style="rhombus;whiteSpace=wrap;html=1;" parent="1" vertex="1">
                    <mxGeometry x="65" y="960" width="130" height="120" as="geometry"/>
                </mxCell>
                <mxCell id="_qi8FwCYdVETl0Iwc0qn-18" value="YES" style="text;html=1;align=center;verticalAlign=middle;whiteSpace=wrap;rounded=0;" parent="1" vertex="1">
                    <mxGeometry x="180" y="1050" width="60" height="30" as="geometry"/>
                </mxCell>
                <mxCell id="_qi8FwCYdVETl0Iwc0qn-19" value="NO" style="text;html=1;align=center;verticalAlign=middle;whiteSpace=wrap;rounded=0;" parent="1" vertex="1">
                    <mxGeometry x="470" y="980" width="70" height="40" as="geometry"/>
                </mxCell>
                <mxCell id="_qi8FwCYdVETl0Iwc0qn-20" value="Incrementar pares" style="rounded=0;whiteSpace=wrap;html=1;" parent="1" vertex="1">
                    <mxGeometry x="700" y="1060" width="120" height="60" as="geometry"/>
                </mxCell>
                <mxCell id="_qi8FwCYdVETl0Iwc0qn-21" value="Incrementar Impares" style="rounded=0;whiteSpace=wrap;html=1;" parent="1" vertex="1">
                    <mxGeometry x="560" y="990" width="120" height="60" as="geometry"/>
                </mxCell>
                <mxCell id="_qi8FwCYdVETl0Iwc0qn-30" value="" style="endArrow=classic;html=1;rounded=0;entryX=0.417;entryY=0;entryDx=0;entryDy=0;entryPerimeter=0;exitX=0;exitY=0.5;exitDx=0;exitDy=0;" parent="1" source="_qi8FwCYdVETl0Iwc0qn-10" target="_qi8FwCYdVETl0Iwc0qn-14" edge="1">
                    <mxGeometry width="50" height="50" relative="1" as="geometry">
                        <mxPoint x="-30" y="530" as="sourcePoint"/>
                        <mxPoint x="20" y="480" as="targetPoint"/>
                        <Array as="points">
                            <mxPoint x="-20" y="515"/>
                        </Array>
                    </mxGeometry>
                </mxCell>
                <mxCell id="_qi8FwCYdVETl0Iwc0qn-31" value="" style="shape=waypoint;sketch=0;size=6;pointerEvents=1;points=[];fillColor=default;resizable=0;rotatable=0;perimeter=centerPerimeter;snapToPoint=1;" parent="1" vertex="1">
                    <mxGeometry x="200" y="630" width="20" height="20" as="geometry"/>
                </mxCell>
                <mxCell id="_qi8FwCYdVETl0Iwc0qn-34" value="YES" style="text;html=1;align=center;verticalAlign=middle;whiteSpace=wrap;rounded=0;" parent="1" vertex="1">
                    <mxGeometry x="70" y="800" width="60" height="30" as="geometry"/>
                </mxCell>
                <mxCell id="_qi8FwCYdVETl0Iwc0qn-35" value="NO" style="text;html=1;align=center;verticalAlign=middle;whiteSpace=wrap;rounded=0;" parent="1" vertex="1">
                    <mxGeometry x="300" y="800" width="60" height="30" as="geometry"/>
                </mxCell>
                <mxCell id="_qi8FwCYdVETl0Iwc0qn-36" value="" style="shape=waypoint;sketch=0;size=6;pointerEvents=1;points=[];fillColor=default;resizable=0;rotatable=0;perimeter=centerPerimeter;snapToPoint=1;" parent="1" vertex="1">
                    <mxGeometry x="120" y="830" width="20" height="20" as="geometry"/>
                </mxCell>
                <mxCell id="_qi8FwCYdVETl0Iwc0qn-38" value="" style="shape=waypoint;sketch=0;size=6;pointerEvents=1;points=[];fillColor=default;resizable=0;rotatable=0;perimeter=centerPerimeter;snapToPoint=1;" parent="1" vertex="1">
                    <mxGeometry x="340" y="830" width="20" height="20" as="geometry"/>
                </mxCell>
                <mxCell id="_qi8FwCYdVETl0Iwc0qn-40" value="" style="shape=waypoint;sketch=0;size=6;pointerEvents=1;points=[];fillColor=default;resizable=0;rotatable=0;perimeter=centerPerimeter;snapToPoint=1;rounded=0;" parent="1" vertex="1">
                    <mxGeometry x="120" y="950" width="20" height="20" as="geometry"/>
                </mxCell>
                <mxCell id="_qi8FwCYdVETl0Iwc0qn-52" value="" style="shape=waypoint;sketch=0;size=6;pointerEvents=1;points=[];fillColor=default;resizable=0;rotatable=0;perimeter=centerPerimeter;snapToPoint=1;" parent="1" vertex="1">
                    <mxGeometry x="640" y="970" width="20" height="20" as="geometry"/>
                </mxCell>
                <mxCell id="_qi8FwCYdVETl0Iwc0qn-60" value="" style="endArrow=classic;html=1;rounded=0;entryX=0.5;entryY=0;entryDx=0;entryDy=0;" parent="1" target="_qi8FwCYdVETl0Iwc0qn-20" edge="1">
                    <mxGeometry width="50" height="50" relative="1" as="geometry">
                        <mxPoint x="450" y="330" as="sourcePoint"/>
                        <mxPoint x="760" y="1040" as="targetPoint"/>
                        <Array as="points">
                            <mxPoint x="770" y="330"/>
                        </Array>
                    </mxGeometry>
                </mxCell>
                <mxCell id="_qi8FwCYdVETl0Iwc0qn-63" value="" style="endArrow=classic;html=1;rounded=0;" parent="1" edge="1">
                    <mxGeometry width="50" height="50" relative="1" as="geometry">
                        <mxPoint x="130" y="1080" as="sourcePoint"/>
                        <mxPoint x="690" y="1080" as="targetPoint"/>
                        <Array as="points">
                            <mxPoint x="190" y="1080"/>
                        </Array>
                    </mxGeometry>
                </mxCell>
            </root>
        </mxGraphModel>
    </diagram>
</mxfile>